<svg width="3682" height="540" viewBox="0 0 3682 540" fill="none" xmlns="http://www.w3.org/2000/svg">
<g clip-path="url(#clip0_4_19)">
<path d="M270 0H670C682.598 0 694.68 5.00444 703.588 13.9124C712.496 22.8204 717.5 34.9022 717.5 47.5C717.5 60.0978 712.496 72.1796 703.588 81.0876C694.68 89.9956 682.598 95 670 95H270C223.587 95 179.075 113.437 146.256 146.256C113.437 179.075 95 223.587 95 270C95 316.413 113.437 360.925 146.256 393.744C179.075 426.563 223.587 445 270 445H670C682.598 445 694.68 450.004 703.588 458.912C712.496 467.82 717.5 479.902 717.5 492.5C717.5 505.098 712.496 517.18 703.588 526.088C694.68 534.996 682.598 540 670 540H270C198.392 540 129.716 511.554 79.0812 460.919C28.4463 410.284 0 341.608 0 270C0 198.392 28.4463 129.716 79.0812 79.0812C129.716 28.4464 198.392 0 270 0Z" fill="#05070B"/>
<path d="M270 150H590C599.946 150 609.484 153.951 616.516 160.983C623.549 168.016 627.5 177.554 627.5 187.5C627.5 197.446 623.549 206.984 616.516 214.017C609.484 221.049 599.946 225 590 225H270C258.065 225 246.619 229.741 238.18 238.18C229.741 246.619 225 258.065 225 270C225 281.935 229.741 293.381 238.18 301.82C246.619 310.259 258.065 315 270 315H510C519.946 315 529.484 318.951 536.516 325.984C543.549 333.016 547.5 342.554 547.5 352.5C547.5 362.446 543.549 371.984 536.516 379.016C529.484 386.049 519.946 390 510 390H270C238.174 390 207.652 377.357 185.147 354.853C162.643 332.348 150 301.826 150 270C150 238.174 162.643 207.652 185.147 185.147C207.652 162.643 238.174 150 270 150Z" fill="#BE123C"/>
<path d="M1083.62 460.327C1057.22 460.327 1032.64 455.542 1009.87 445.972C987.425 436.402 967.79 423.037 950.96 405.877C934.13 388.717 920.93 368.587 911.36 345.487C902.12 322.387 897.5 297.142 897.5 269.752C897.5 242.362 902.12 217.117 911.36 194.017C920.6 170.587 933.635 150.457 950.465 133.627C967.295 116.467 986.93 103.267 1009.37 94.0274C1032.14 84.4574 1056.89 79.6724 1083.62 79.6724C1110.35 79.6724 1134.28 84.1274 1155.4 93.0374C1176.85 101.947 1195 113.827 1209.85 128.677C1224.7 143.527 1235.26 160.027 1241.53 178.177L1173.71 210.847C1167.44 193.027 1156.39 178.342 1140.55 166.792C1125.04 154.912 1106.06 148.972 1083.62 148.972C1061.84 148.972 1042.7 154.087 1026.2 164.317C1009.7 174.547 996.83 188.737 987.59 206.887C978.68 224.707 974.225 245.662 974.225 269.752C974.225 293.842 978.68 314.962 987.59 333.112C996.83 351.262 1009.7 365.452 1026.2 375.682C1042.7 385.912 1061.84 391.027 1083.62 391.027C1106.06 391.027 1125.04 385.252 1140.55 373.702C1156.39 361.822 1167.44 346.972 1173.71 329.152L1241.53 361.822C1235.26 379.972 1224.7 396.472 1209.85 411.322C1195 426.172 1176.85 438.052 1155.4 446.962C1134.28 455.872 1110.35 460.327 1083.62 460.327Z" fill="#05070B"/>
<path d="M1364.13 460.327C1344.66 460.327 1327.83 457.192 1313.64 450.922C1299.45 444.652 1288.56 435.742 1280.97 424.192C1273.38 412.312 1269.59 398.287 1269.59 382.117C1269.59 366.937 1273.05 353.572 1279.98 342.022C1286.91 330.142 1297.47 320.242 1311.66 312.322C1326.18 304.402 1344.17 298.792 1365.62 295.492L1448.28 282.127V336.577L1378.98 348.952C1368.42 350.932 1360.34 354.397 1354.73 359.347C1349.12 363.967 1346.31 370.732 1346.31 379.642C1346.31 387.892 1349.45 394.327 1355.72 398.947C1361.99 403.567 1369.74 405.877 1378.98 405.877C1391.19 405.877 1401.92 403.237 1411.16 397.957C1420.4 392.677 1427.49 385.582 1432.44 376.672C1437.72 367.432 1440.36 357.367 1440.36 346.477V276.187C1440.36 265.957 1436.24 257.377 1427.99 250.447C1420.07 243.517 1409.18 240.052 1395.32 240.052C1382.12 240.052 1370.4 243.682 1360.17 250.942C1350.27 258.202 1343.01 267.772 1338.39 279.652L1278.99 251.437C1284.27 236.257 1292.69 223.222 1304.24 212.332C1315.79 201.442 1329.65 193.027 1345.82 187.087C1361.99 181.147 1379.64 178.177 1398.78 178.177C1421.55 178.177 1441.68 182.302 1459.17 190.552C1476.66 198.802 1490.19 210.352 1499.76 225.202C1509.66 239.722 1514.61 256.717 1514.61 276.187V454.387H1445.31V410.827L1462.14 407.857C1454.22 419.737 1445.48 429.637 1435.91 437.557C1426.34 445.147 1415.61 450.757 1403.73 454.387C1391.85 458.347 1378.65 460.327 1364.13 460.327Z" fill="#05070B"/>
<path d="M1696.28 460.327C1669.88 460.327 1646.29 454.057 1625.5 441.517C1604.71 428.977 1588.21 411.982 1576 390.532C1564.12 369.082 1558.18 345.322 1558.18 319.252C1558.18 292.852 1564.28 269.092 1576.49 247.972C1588.7 226.522 1605.2 209.527 1625.99 196.987C1646.78 184.447 1670.05 178.177 1695.79 178.177C1715.59 178.177 1733.08 181.972 1748.26 189.562C1763.77 196.822 1775.98 207.217 1784.89 220.747L1773.5 235.597V79.6724H1847.75V454.387H1778.45V404.887L1785.38 420.232C1776.14 433.432 1763.6 443.497 1747.76 450.427C1731.92 457.027 1714.76 460.327 1696.28 460.327ZM1705.19 393.502C1718.72 393.502 1730.6 390.367 1740.83 384.097C1751.06 377.827 1758.98 369.082 1764.59 357.862C1770.53 346.642 1773.5 333.772 1773.5 319.252C1773.5 304.732 1770.53 291.862 1764.59 280.642C1758.98 269.422 1751.06 260.677 1740.83 254.407C1730.6 248.137 1718.72 245.002 1705.19 245.002C1691.66 245.002 1679.45 248.302 1668.56 254.902C1658 261.172 1649.75 269.917 1643.81 281.137C1637.87 292.027 1634.9 304.732 1634.9 319.252C1634.9 333.772 1637.87 346.642 1643.81 357.862C1649.75 369.082 1658 377.827 1668.56 384.097C1679.45 390.367 1691.66 393.502 1705.19 393.502Z" fill="#05070B"/>
<path d="M1985.78 460.327C1966.31 460.327 1949.48 457.192 1935.29 450.922C1921.1 444.652 1910.21 435.742 1902.62 424.192C1895.03 412.312 1891.24 398.287 1891.24 382.117C1891.24 366.937 1894.7 353.572 1901.63 342.022C1908.56 330.142 1919.12 320.242 1933.31 312.322C1947.83 304.402 1965.82 298.792 1987.27 295.492L2069.93 282.127V336.577L2000.63 348.952C1990.07 350.932 1981.99 354.397 1976.38 359.347C1970.77 363.967 1967.96 370.732 1967.96 379.642C1967.96 387.892 1971.1 394.327 1977.37 398.947C1983.64 403.567 1991.39 405.877 2000.63 405.877C2012.84 405.877 2023.57 403.237 2032.81 397.957C2042.05 392.677 2049.14 385.582 2054.09 376.672C2059.37 367.432 2062.01 357.367 2062.01 346.477V276.187C2062.01 265.957 2057.89 257.377 2049.64 250.447C2041.72 243.517 2030.83 240.052 2016.97 240.052C2003.77 240.052 1992.05 243.682 1981.82 250.942C1971.92 258.202 1964.66 267.772 1960.04 279.652L1900.64 251.437C1905.92 236.257 1914.34 223.222 1925.89 212.332C1937.44 201.442 1951.3 193.027 1967.47 187.087C1983.64 181.147 2001.29 178.177 2020.43 178.177C2043.2 178.177 2063.33 182.302 2080.82 190.552C2098.31 198.802 2111.84 210.352 2121.41 225.202C2131.31 239.722 2136.26 256.717 2136.26 276.187V454.387H2066.96V410.827L2083.79 407.857C2075.87 419.737 2067.13 429.637 2057.56 437.557C2047.99 445.147 2037.26 450.757 2025.38 454.387C2013.5 458.347 2000.3 460.327 1985.78 460.327Z" fill="#05070B"/>
<path d="M2296.65 460.327C2266.95 460.327 2241.04 453.397 2218.93 439.537C2197.15 425.347 2182.3 406.372 2174.38 382.612L2228.83 356.872C2235.76 371.392 2245.17 382.777 2257.05 391.027C2268.93 399.277 2282.13 403.402 2296.65 403.402C2307.21 403.402 2315.29 401.257 2320.9 396.967C2326.51 392.677 2329.32 386.737 2329.32 379.147C2329.32 375.187 2328.33 371.887 2326.35 369.247C2324.37 366.277 2321.4 363.637 2317.44 361.327C2313.48 359.017 2308.53 357.037 2302.59 355.387L2256.55 342.517C2234.44 336.247 2217.45 326.182 2205.57 312.322C2193.69 298.132 2187.75 281.467 2187.75 262.327C2187.75 245.497 2192.04 230.812 2200.62 218.272C2209.2 205.732 2221.24 195.997 2236.75 189.067C2252.26 181.807 2270.08 178.177 2290.21 178.177C2316.61 178.177 2339.71 184.447 2359.51 196.987C2379.64 209.197 2393.83 226.522 2402.08 248.962L2347.14 274.702C2343.18 263.482 2335.92 254.572 2325.36 247.972C2315.13 241.042 2303.41 237.577 2290.21 237.577C2280.64 237.577 2273.05 239.557 2267.44 243.517C2262.16 247.477 2259.52 252.922 2259.52 259.852C2259.52 263.482 2260.51 266.782 2262.49 269.752C2264.47 272.722 2267.61 275.362 2271.9 277.672C2276.52 279.982 2282.13 282.127 2288.73 284.107L2331.79 296.977C2354.23 303.577 2371.39 313.642 2383.27 327.172C2395.15 340.372 2401.09 356.707 2401.09 376.177C2401.09 393.007 2396.64 407.692 2387.73 420.232C2379.15 432.772 2367.1 442.672 2351.59 449.932C2336.08 456.862 2317.77 460.327 2296.65 460.327Z" fill="#05070B"/>
<path d="M2575.65 457.357C2542.98 457.357 2517.57 448.612 2499.42 431.122C2481.6 413.302 2472.69 388.552 2472.69 356.872V248.467H2427.15V184.117H2429.63C2443.49 184.117 2454.05 180.652 2461.31 173.722C2468.9 166.792 2472.69 156.397 2472.69 142.537V122.737H2546.94V184.117H2610.3V248.467H2546.94V351.922C2546.94 361.162 2548.59 368.917 2551.89 375.187C2555.19 381.127 2560.31 385.582 2567.24 388.552C2574.17 391.522 2582.75 393.007 2592.98 393.007C2595.29 393.007 2597.93 392.842 2600.9 392.512C2603.87 392.182 2607 391.852 2610.3 391.522V454.387C2605.35 455.047 2599.74 455.707 2593.47 456.367C2587.2 457.027 2581.26 457.357 2575.65 457.357Z" fill="#05070B"/>
<path d="M2653.81 454.387V184.117H2723.11V248.962L2718.16 239.557C2724.1 216.787 2733.84 201.442 2747.37 193.522C2761.23 185.272 2777.56 181.147 2796.37 181.147H2812.21V245.497H2788.95C2770.8 245.497 2756.11 251.107 2744.89 262.327C2733.67 273.217 2728.06 288.727 2728.06 308.857V454.387H2653.81Z" fill="#05070B"/>
<path d="M2974.94 460.327C2946.23 460.327 2921.32 454.057 2900.2 441.517C2879.08 428.647 2862.74 411.487 2851.19 390.037C2839.64 368.587 2833.87 344.827 2833.87 318.757C2833.87 291.697 2839.81 267.607 2851.69 246.487C2863.9 225.367 2880.23 208.702 2900.69 196.492C2921.15 184.282 2944.25 178.177 2969.99 178.177C2991.44 178.177 3010.42 181.642 3026.92 188.572C3043.42 195.172 3057.28 204.577 3068.5 216.787C3080.05 228.997 3088.79 243.187 3094.73 259.357C3100.67 275.197 3103.64 292.522 3103.64 311.332C3103.64 316.612 3103.31 321.892 3102.65 327.172C3102.32 332.122 3101.5 336.412 3100.18 340.042H2897.72V285.592H3058.1L3022.96 311.332C3026.26 297.142 3026.09 284.602 3022.46 273.712C3018.83 262.492 3012.4 253.747 3003.16 247.477C2994.25 240.877 2983.19 237.577 2969.99 237.577C2957.12 237.577 2946.07 240.712 2936.83 246.982C2927.59 253.252 2920.66 262.492 2916.04 274.702C2911.42 286.912 2909.6 301.762 2910.59 319.252C2909.27 334.432 2911.09 347.797 2916.04 359.347C2920.99 370.897 2928.58 379.972 2938.81 386.572C2949.04 392.842 2961.41 395.977 2975.93 395.977C2989.13 395.977 3000.35 393.337 3009.59 388.057C3019.16 382.777 3026.59 375.517 3031.87 366.277L3091.27 394.492C3085.99 407.692 3077.57 419.242 3066.02 429.142C3054.8 439.042 3041.44 446.797 3025.93 452.407C3010.42 457.687 2993.42 460.327 2974.94 460.327Z" fill="#05070B"/>
<path d="M3214.53 454.387L3339.27 85.6123H3441.24L3565.98 454.387H3482.32L3457.57 379.147H3322.44L3297.69 454.387H3214.53ZM3343.72 312.322H3436.29L3379.86 138.082H3400.65L3343.72 312.322Z" fill="#05070B"/>
<path d="M3604.3 454.387V85.6123H3681.03V454.387H3604.3Z" fill="#05070B"/>
</g>
<defs>
<clipPath id="clip0_4_19">
<rect width="3681.03" height="540" fill="white"/>
</clipPath>
</defs>
</svg>
